<?xml version="1.0" encoding="UTF-8" standalone="no"?> <!-- Created with Vectornator for iOS (http://vectornator.io/) --><!DOCTYPE svg PUBLIC "-//W3C//DTD SVG 1.1//EN" "http://www.w3.org/Graphics/SVG/1.1/DTD/svg11.dtd">
<svg style="fill-rule:evenodd;clip-rule:evenodd;stroke-linecap:round;stroke-linejoin:round;" xmlns:vectornator="http://vectornator.io" xmlns:xlink="http://www.w3.org/1999/xlink" xmlns="http://www.w3.org/2000/svg" xml:space="preserve" version="1.1" viewBox="0 0 1190.7 841.995">
<metadata>
<vectornator:setting key="DimensionsVisible" value="1"/>
<vectornator:setting key="New" value="1"/>
<vectornator:setting key="SnapToPoints" value="0"/>
<vectornator:setting key="GuidesVisible" value="1"/>
<vectornator:setting key="RulersVisible" value="1"/>
<vectornator:setting key="CMYKEnabledKey" value="1"/>
<vectornator:setting key="SnapToEdges" value="0"/>
<vectornator:setting key="DisplayWhiteBackground" value="0"/>
<vectornator:setting key="SnapToGuides" value="1"/>
<vectornator:setting key="GridSpacing" value="36"/>
<vectornator:setting key="SnapToGrid" value="0"/>
<vectornator:setting key="Units" value="Millimeters"/>
<vectornator:setting key="DynamicGuides" value="0"/>
</metadata>
<defs/>
<g id="Layer 7" vectornator:layerName="Layer 7">
<path stroke="#ffffff" stroke-width="5" d="M560.465+13.5883C554.541+13.7096+548.673+16.3896+544.817+21.604C537.753+31.1551+530.203+40.9851+521.938+51.5607C514.842+60.641+507.34+70.098+498.289+81.3419C493.854+86.8531+457.216+132.282+450.161+141.197C441.53+152.103+433.762+162.064+426.452+171.739C418.275+182.562+410.711+192.935+403.574+203.099C395.852+214.097+388.625+224.866+381.88+235.514C374.711+246.831+368.082+258.036+361.906+269.215C359.077+274.335+356.653+279.69+354.615+285.305C353.082+289.531+351.891+293.997+350.763+298.528L341.457+269.273C336.96+255.186+318.653+251.022+308.206+261.667C304.645+265.295+300.785+269.002+296.47+272.959C292.724+276.396+288.73+279.957+283.846+284.193C281.43+286.288+271.808+294.478+270.569+295.544C265.1+300.25+261.062+303.826+257.114+307.363C252.236+311.731+247.875+315.758+243.778+319.767C239.146+324.299+234.874+328.774+230.916+333.224C226.589+338.09+222.631+342.946+219.003+347.91C215.111+353.234+211.626+358.618+208.512+364.175C206.144+368.401+203.951+372.823+201.992+377.34C200.066+381.779+198.354+386.302+196.835+390.972C195.338+395.576+194.074+400.299+192.983+405.073C191.904+409.798+190.987+414.631+190.315+419.466C189.647+424.268+189.214+429.067+188.952+433.918C188.691+438.757+188.629+443.601+188.774+448.428C188.92+453.262+189.289+458.061+189.841+462.822C190.396+467.609+191.133+472.328+192.093+476.981C193.295+482.801+194.859+488.605+196.835+494.417C198.675+499.828+200.857+505.238+203.355+510.741C205.637+515.767+208.195+520.916+211.06+526.187C213.591+530.843+216.35+535.521+219.477+540.697C219.729+541.116+220.111+541.681+220.366+542.102L188.004+527.474C170.148+519.401+152.453+538.965+162.813+555.325C166.106+560.524+169.32+566.319+172.593+572.877C175.462+578.627+178.327+584.885+181.662+592.537C183.319+596.339+189.77+611.455+190.612+613.424C194.34+622.15+197.198+628.624+200.154+634.897C203.831+642.699+207.383+649.622+211.12+656.078C215.386+663.448+219.862+670.158+224.633+676.263C229.91+683.016+235.543+689.03+241.704+694.342C248.347+700.071+255.537+704.936+263.338+708.911C270.636+712.63+278.585+716.054+286.928+719.15C295.306+722.26+304.083+724.996+313.007+727.283C322.15+729.627+331.366+731.459+340.568+732.783C350.145+734.161+359.652+735.022+368.841+735.182C374.253+735.276+379.496+735.031+384.666+734.655C385.961+729.902+387.452+725.449+389.704+721.315C396.195+709.405+407.035+701.657+421.296+701.305C425.053+699.225+429.036+697.685+433.328+697.385C434.043+697.335+434.796+697.556+435.521+697.561C438.305+696.382+441.16+695.412+444.174+694.986C447.143+694.566+450.184+694.546+453.302+694.986C453.624+695.031+453.875+695.219+454.191+695.279C456.307+694.151+458.506+693.237+460.77+692.88C463.377+692.469+465.989+692.738+468.535+693.289C468.626+693.02+468.762+692.677+468.831+692.47C471.564+684.377+478.922+679.057+487.028+678.428C489.73+678.218+492.474+678.523+495.207+679.423C498.999+680.67+501.999+682.986+504.335+685.8C505.593+684.662+506.833+683.537+508.365+682.699C510.33+679.382+512.71+676.241+515.656+673.396C522.342+666.937+530.161+662.546+541.024+657.95C542.203+657.451+546.596+655.882+550.27+654.615C552.511+653.842+554.416+653.214+555.96+652.742C557.093+652.396+558.08+652.087+559.042+651.865C560.117+651.617+561.077+651.451+562.362+651.338C564.09+651.186+565.808+651.192+567.992+651.572C570.851+652.132+570.871+652.166+575.579+654.498C578.308+656.378+578.302+656.33+581.091+659.471C581.638+660.309+581.811+660.608+582.158+661.168C617.988+612.349+646.663+557.386+669.761+495.236C690.42+439.646+706.293+379.942+720.675+308.299C723.67+293.383+718.27+280.184+707.161+268.513C700.389+261.397+694.09+256.629+678.948+246.396C666.339+237.876+661.209+234.058+657.136+229.78C652.751+225.172+646.711+223.341+640.837+223.87C642.136+217.414+643.535+211.374+644.808+204.796C649.32+181.495+653.67+157.489+657.966+132.245C659.211+124.928+659.031+117.657+657.492+110.596C656.077+104.108+653.503+97.8969+649.965+91.8736C646.884+86.6268+643.087+81.5865+638.525+76.5442C634.646+72.2565+630.233+67.9944+625.13+63.4966C621.097+59.9427+616.909+56.4204+611.142+51.7948C609.852+50.7602+599.99+42.9492+597.569+40.9706C592.76+37.0414+588.933+33.7334+585.596+30.6145C581.9+27.1599+578.908+23.9835+576.468+20.9604C572.392+15.9084+566.389+13.4672+560.465+13.5883ZM644.452+272.14C647.961+274.709+651.138+277.059+656.366+280.624C668.975+289.22+674.105+293.1+678.178+297.416C681.384+300.815+681.943+302.277+681.734+303.326C667.714+373.776+652.348+432.177+632.48+486.108C609.098+549.578+580.002+604.893+543.217+653.269C535.08+663.971+512.759+667.947+487.443+665.966C493.5+655.614+499.428+645.141+505.165+634.429C516.829+612.646+527.85+590.138+538.238+566.851C548.287+544.328+557.756+521.075+566.688+497.108C575.294+474.017+583.397+450.228+591.049+425.727C598.383+402.241+605.308+378.13+611.853+353.234C617.115+333.222+622.033+312.432+626.849+291.39C632.954+284.833+639.712+277.436+644.452+272.14ZM571.015+351.947C565.312+373.191+559.465+394.053+553.174+414.201C545.728+438.047+537.822+461.17+529.466+483.592C520.813+506.809+511.674+529.289+501.964+551.054C491.949+573.5+481.352+595.17+470.135+616.116C462.494+630.386+454.473+644.192+446.249+657.774C441.662+656.263+437.14+654.637+432.794+652.742C418.998+646.73+410.603+636.711+398.476+613.892C404.172+616.095+410.128+618.397+415.428+620.445C433.021+627.249+449.408+608.263+439.729+592.244C435.229+584.796+431.257+579.203+422.185+566.968C406.377+545.65+400.745+536.259+398.002+524.9C393.995+508.306+396.972+489.75+406.182+475.694C413.811+464.049+423.527+455.612+448.383+437.37C450.909+435.516+451.297+435.041+453.362+433.509C459.992+451.274+466.767+469.427+472.862+485.757C479.837+504.445+507.333+502.128+510.973+482.539C512.475+474.459+513.009+468.141+513.759+454.279C514.986+431.581+516.68+422.74+522.235+414.142C535.435+393.711+549.392+376.09+571.015+351.947Z" fill="#393939" stroke-linecap="round" opacity="1" stroke-linejoin="round"/>
</g>
<g id="Layer 6" vectornator:layerName="Layer 6">
<path stroke="#ffffff" stroke-width="5" d="M383.25+735.63L649.99+70.7399L779.923+272.118L862.42+225.699L1050.1+734.947C1050.1+734.947+672.677+607.294+383.25+735.63Z" fill="#2c2c2c" stroke-linecap="round" opacity="1" stroke-linejoin="round"/>
<path d="M547.45+448.035C555.891+432.066+628.339+214.738+628.339+214.738L720.482+394.571L814.735+329.998C814.735+329.998+887.886+538.993+884.369+543.159C880.853+547.325+762.685+477.197+762.685+477.197L714.151+622.314L633.263+434.843" opacity="1" fill="#ffffff"/>
</g>
<g id="Layer 3" vectornator:layerName="Layer 3">
<text stroke="#ffffff" stroke-width="2" x="0" font-family="MarkerFelt-Wide" y="0" fill="#800201" stroke-linecap="round" font-size="119" opacity="1" text-anchor="end" transform="matrix(1.89668 0 0 1.87229 -23.5353 522.191)" stroke-linejoin="round" vectornator:width="698.566" vectornator:text="FirePeak">
<tspan x="570.385" y="108" textLength="442.204">
FirePeak</tspan>
</text>
</g>
<g id="Layer 4" vectornator:layerName="Layer 4">
<text stroke="#ffffff" stroke-width="2" x="0" font-family="MarkerFelt-Wide" y="0" fill="#000000" stroke-linecap="round" font-size="54" opacity="1" text-anchor="start" transform="matrix(1.89668 0 0 1.87229 205.941 699.219)" stroke-linejoin="round" vectornator:width="642.943" vectornator:text="Technology&#x20;">
<tspan x="0" y="49" textLength="280.53">
Technology </tspan>
</text>
</g>
</svg>
